<svg width="31" height="29" viewBox="0 0 31 29" fill="none" xmlns="http://www.w3.org/2000/svg">
<path d="M30.2961 0.586333C29.7711 0.141133 28.9465 0.077433 28.0939 0.419733H28.0925C27.1958 0.779533 2.70978 11.2823 1.71298 11.7114C1.53168 11.7744 -0.0517244 12.3652 0.111376 13.6812C0.256976 14.8677 1.52958 15.3591 1.68498 15.4158L7.91008 17.5473C8.32308 18.9221 9.84558 23.9943 10.1823 25.0779C10.3923 25.7534 10.7346 26.641 11.3345 26.8237C11.8609 27.0267 12.3845 26.8412 12.7233 26.5752L16.5292 23.0451L22.6731 27.8366L22.8194 27.9241C23.2366 28.1089 23.6363 28.2013 24.0178 28.2013C24.3125 28.2013 24.5953 28.146 24.8655 28.0354C25.786 27.6574 26.1542 26.7803 26.1927 26.6809L30.7819 2.82703C31.0619 1.55303 30.6727 0.904833 30.2961 0.586333ZM13.4002 18.3999L11.3002 23.9999L9.20018 16.9999L25.3002 5.09993L13.4002 18.3999Z" fill="black"/>
</svg>
