<svg width="30" height="30" viewBox="0 0 30 30" fill="none" xmlns="http://www.w3.org/2000/svg">
<path d="M25.5192 5.29999C26.2317 5.29999 26.7692 5.92499 26.4817 7.08749L22.9942 23.525C22.7505 24.6937 22.0442 24.975 21.0692 24.4312L12.7505 18.2875C12.7182 18.2643 12.6919 18.2338 12.6738 18.1985C12.6557 18.1632 12.6462 18.1241 12.6462 18.0844C12.6462 18.0447 12.6557 18.0055 12.6738 17.9702C12.6919 17.9349 12.7182 17.9044 12.7505 17.8812L22.3567 9.20624C22.7942 8.81874 22.263 8.63124 21.688 8.98124L9.63173 16.5875C9.59517 16.6113 9.55365 16.6265 9.51034 16.632C9.46702 16.6374 9.42304 16.6329 9.38173 16.6187L4.26298 15C3.12548 14.6687 3.12548 13.8875 4.51923 13.3312L25.0005 5.43124C25.1629 5.35331 25.3393 5.30869 25.5192 5.29999V5.29999Z" stroke="black" stroke-width="1.25" stroke-linecap="round" stroke-linejoin="round"/>
</svg>
