<svg width="38" height="22" viewBox="0 0 38 22" fill="none" xmlns="http://www.w3.org/2000/svg">
<path fill-rule="evenodd" clip-rule="evenodd" d="M18.5254 21.1143H20.8006C20.8006 21.1143 21.4862 21.0414 21.8361 20.6736C22.1686 20.3306 22.1686 19.6959 22.1686 19.6959C22.1686 19.6959 22.1196 16.7056 23.5446 16.2664C24.949 15.8303 26.7302 19.1528 28.6287 20.43C30.079 21.4061 31.1699 21.1966 31.1699 21.1966L36.2541 21.1283C36.2541 21.1283 38.9172 20.9653 37.6585 18.9154C37.5619 18.7524 36.9444 17.4023 33.9044 14.6323C30.7187 11.7443 31.1462 12.2099 34.9747 7.20365C37.3006 4.15428 38.2522 2.29053 37.9435 1.49909C37.6806 0.754206 35.9485 0.938875 35.9485 0.938875L30.2453 0.986982C30.2453 0.986982 29.8178 0.938875 29.509 1.12665C29.2003 1.31132 29.0118 1.73342 29.0118 1.73342C29.0118 1.73342 28.1062 4.10618 26.8965 6.1096C24.3267 10.3446 23.3055 10.5773 22.9017 10.298C21.9454 9.69124 22.1908 7.84611 22.1908 6.52394C22.1908 2.42554 22.8305 0.704548 20.9542 0.262274C20.3367 0.121056 19.876 0.0294979 18.2863 0.00466853C16.2438 -0.0170572 14.5211 0.0201869 13.5442 0.48729C12.9029 0.802313 12.4042 1.49909 12.6908 1.53478C13.0708 1.58134 13.9242 1.76135 14.3754 2.36812C14.9692 3.15335 14.9438 4.90693 14.9438 4.90693C14.9438 4.90693 15.2779 9.74245 14.1617 10.343C13.3779 10.7496 12.3329 9.9085 10.0529 6.06615C8.88915 4.11083 8.00881 1.92274 8.00881 1.92274C8.00881 1.92274 7.84256 1.52547 7.53539 1.29269C7.17597 1.03664 6.65347 0.943531 6.65347 0.943531L1.21469 0.990086C1.21469 0.990086 0.407184 1.01492 0.123766 1.36253C-0.139069 1.66514 0.0984321 2.31691 0.0984321 2.31691C0.0984321 2.31691 4.35129 12.0733 9.17415 16.9864C13.5917 21.4899 18.6045 21.1997 18.6045 21.1997L18.5254 21.1143Z" fill="black" fill-opacity="0.85"/>
</svg>
