<svg width="323" height="195" viewBox="0 0 323 195" fill="none" xmlns="http://www.w3.org/2000/svg">
<path fill-rule="evenodd" clip-rule="evenodd" d="M61.6343 43.3333C61.6343 38.1415 58.8966 33.5289 54.8004 30.8752V7.7381C54.8004 3.48214 51.319 0 47.0639 0C42.8088 0 39.3273 3.48214 39.3273 7.7381V30.5557C34.9468 33.1479 31.9776 37.9265 31.9776 43.3333V108.075C31.9776 110.913 34.2986 113.234 37.1353 113.234H48.4822H56.6056H79.9955L100.962 172.946C102.509 177.073 107.022 179.266 111.148 177.847C115.274 176.3 117.466 171.786 116.048 167.659L93.2252 102.659C91.9094 99.1493 88.4491 97.0387 84.9057 97.3581C84.466 97.2818 84.0145 97.2421 83.5545 97.2421H61.6343V43.3333ZM0 49.7817V122.649C0 122.927 0.0202215 123.202 0.0593332 123.472C0.0202216 123.751 0 124.036 0 124.325C0 127.679 2.70778 130.258 6.06028 130.258H71.4339C74.7864 130.258 77.4942 127.679 77.6232 124.325C77.6232 120.972 74.9154 118.264 71.5629 118.264H12.1206V49.9107C12.1206 46.5575 9.41277 43.8492 6.06028 43.8492C2.70778 43.8492 0 46.4286 0 49.7817ZM220.62 81.6369H104.056C100.704 81.6369 97.996 78.9286 97.996 75.5754C97.996 72.2222 100.704 69.5139 104.056 69.5139H220.749C224.101 69.5139 226.809 72.2222 226.809 75.5754C226.68 78.9286 223.972 81.6369 220.62 81.6369ZM131.779 193.968H120.819L117.079 85.248H135.518L131.779 193.968ZM22.307 193.968H33.2671L37.0064 135.288H18.5677L22.307 193.968ZM60.6028 193.968H49.6427L45.9034 135.288H64.2132L60.6028 193.968ZM190.834 193.968H201.794L205.534 85.248H187.224L190.834 193.968ZM181.422 87.1825H139.129V135.933H181.422V87.1825ZM316.94 131.29H251.437C248.085 131.29 245.506 128.581 245.377 125.228C245.377 121.875 248.085 119.167 251.437 119.167H310.879V50.6845C310.879 47.3313 313.587 44.623 316.94 44.623C320.292 44.623 323 47.3313 323 50.6845V123.552C323 123.836 322.98 124.116 322.943 124.39C322.98 124.664 323 124.944 323 125.228C323 128.581 320.292 131.29 316.94 131.29ZM300.693 195H289.604L285.994 136.19H304.303L300.693 195ZM262.397 195H273.357L276.968 136.19H258.658L262.397 195ZM285.865 114.137H274.529L274.518 114.137L266.394 114.137L242.876 114.137L221.909 173.849C220.491 177.976 215.978 180.169 211.723 178.75C207.597 177.202 205.405 172.689 206.823 168.562L229.646 103.562C230.972 100.024 234.477 97.9084 238.049 98.2688C238.503 98.1874 238.97 98.1448 239.445 98.1448H261.366V44.3651C261.366 39.1732 264.103 34.5606 268.2 31.9069V8.51191C268.2 4.25595 271.681 0.77381 275.936 0.77381C280.191 0.77381 283.673 4.25595 283.673 8.51191V31.5875C288.053 34.1796 291.022 38.9582 291.022 44.3651V108.978C291.022 111.815 288.701 114.137 285.865 114.137ZM61.7633 8.75198C59.8303 8.75198 58.2633 10.319 58.2633 12.252C58.2633 14.185 59.8303 15.752 61.7633 15.752H69.4998C71.4328 15.752 72.9998 14.185 72.9998 12.252C72.9998 10.319 71.4328 8.75198 69.4998 8.75198H61.7633ZM82.3754 12.252C82.3754 10.319 83.9424 8.75198 85.8754 8.75198H92.3387C94.2717 8.75198 95.8387 10.319 95.8387 12.252C95.8387 14.185 94.2717 15.752 92.3387 15.752H85.8754C83.9424 15.752 82.3754 14.185 82.3754 12.252ZM101.765 12.252C101.765 10.319 103.332 8.75198 105.265 8.75198H118.192C120.125 8.75198 121.692 10.319 121.692 12.252C121.692 14.185 120.125 15.752 118.192 15.752H105.265C103.332 15.752 101.765 14.185 101.765 12.252ZM127.618 12.252C127.618 10.319 129.185 8.75198 131.118 8.75198H144.044C145.977 8.75198 147.544 10.319 147.544 12.252C147.544 14.185 145.977 15.752 144.044 15.752H131.118C129.185 15.752 127.618 14.185 127.618 12.252ZM153.471 12.252C153.471 10.319 155.038 8.75198 156.971 8.75198H169.897C171.83 8.75198 173.397 10.319 173.397 12.252C173.397 14.185 171.83 15.752 169.897 15.752H156.971C155.038 15.752 153.471 14.185 153.471 12.252ZM179.324 12.252C179.324 10.319 180.891 8.75198 182.824 8.75198H195.75C197.683 8.75198 199.25 10.319 199.25 12.252C199.25 14.185 197.683 15.752 195.75 15.752H182.824C180.891 15.752 179.324 14.185 179.324 12.252ZM205.177 12.252C205.177 10.319 206.744 8.75198 208.677 8.75198H221.603C223.536 8.75198 225.103 10.319 225.103 12.252C225.103 14.185 223.536 15.752 221.603 15.752H208.677C206.744 15.752 205.177 14.185 205.177 12.252ZM231.03 12.252C231.03 10.319 232.597 8.75198 234.53 8.75198H240.993C242.926 8.75198 244.493 10.319 244.493 12.252C244.493 14.185 242.926 15.752 240.993 15.752H234.53C232.597 15.752 231.03 14.185 231.03 12.252ZM249.245 8.75198C247.312 8.75198 245.745 10.319 245.745 12.252C245.745 14.185 247.312 15.752 249.245 15.752H256.982C258.915 15.752 260.482 14.185 260.482 12.252C260.482 10.319 258.915 8.75198 256.982 8.75198H249.245Z" fill="#181818"/>
</svg>
