<svg width="60" height="61" viewBox="0 0 60 61" fill="none" xmlns="http://www.w3.org/2000/svg">
<g clip-path="url(#clip0_349_20296)">
<path d="M17.4785 16.7991C20.3481 24.6495 20.3481 24.6495 34.1307 20.9299" stroke="#ED6F5D" stroke-miterlimit="10"/>
<path d="M59.9128 22.4065H52.478C48.4346 22.4065 45.152 25.2289 45.152 28.7056V35.0981H37.7172C33.6737 35.0981 30.3911 37.9205 30.3911 41.3971V47.7897H22.9563C18.9128 47.7897 15.6302 50.6121 15.6302 54.0887V60.4813H8.26066C4.21718 60.4813 0.93457 63.3037 0.93457 66.7803V73.1728" stroke="#ED6F5D" stroke-miterlimit="10"/>
<path d="M42.4819 33.2188C42.8296 33.5191 43.0592 33.912 43.1293 34.3364H40.3476H37.5215V33.528V32.6074H39.065H40.7389C41.423 32.6074 42.0268 32.8447 42.4819 33.2188Z" stroke="#ED6F5D"/>
<path d="M16.6958 32.3878H9.39143C8.47839 32.3878 7.73926 31.7523 7.73926 30.9672V15.5654C7.73926 13.0607 10.1088 11.0233 13.0219 11.0233C15.9349 11.0233 18.3045 13.0607 18.3045 15.5654V30.9672C18.3262 31.7523 17.5871 32.3878 16.6958 32.3878Z" fill="white" stroke="#ED6F5D" stroke-miterlimit="10"/>
<path d="M11.5964 27.4565L7.05859 57.8913" stroke="#ED6F5D" stroke-miterlimit="10"/>
<path d="M12.3598 58.6768C12.7075 58.9771 12.9371 59.37 13.0072 59.7944H10.2255H7.39941V58.986V58.0654H8.94289H10.6168C11.3009 58.0654 11.9048 58.3027 12.3598 58.6768Z" stroke="#ED6F5D"/>
<path d="M7.76074 30.5374C7.76074 27.4532 7.76074 27.4532 18.3477 27.4532" stroke="#ED6F5D" stroke-miterlimit="10"/>
<path d="M37.5433 32.3878C37.5433 19.8084 26.4129 31.3037 14.3477 27.4719" stroke="#ED6F5D" stroke-miterlimit="10"/>
<path d="M3.91309 40.9113C3.91309 14.743 3.91309 14.743 11.4131 14.743" stroke="#ED6F5D" stroke-miterlimit="10"/>
<path d="M12.6739 6.42529C13.8043 7.39726 13.8043 8.96735 12.6739 9.93931C11.5434 10.9113 9.71735 10.9113 8.58691 9.93931" stroke="#ED6F5D" stroke-miterlimit="10"/>
<path d="M9.16994 3.42268L5.08105 6.93835L8.58581 9.95179L12.6747 6.43612L9.16994 3.42268Z" stroke="#ED6F5D" stroke-miterlimit="10"/>
<path d="M1.26074 10.2196L12.326 0.705566" stroke="#ED6F5D" stroke-miterlimit="10"/>
<path d="M1.26074 10.2196V20.6308" stroke="#ED6F5D" stroke-miterlimit="10"/>
<path d="M0 21.2476C0 20.5934 0.608696 20.0701 1.36957 20.0701C2.13043 20.0701 2.73913 20.5934 2.73913 21.2476" fill="#ED6F5D"/>
</g>
<defs>
<clipPath id="clip0_349_20296">
<rect width="60" height="60" fill="white" transform="translate(0 0.5)"/>
</clipPath>
</defs>
</svg>
