<svg width="100" height="61" viewBox="0 0 100 61" fill="none" xmlns="http://www.w3.org/2000/svg">
<g clip-path="url(#clip0_349_20248)">
<path d="M68.3556 4.91211C68.3556 17.7247 62.1505 20.9154 54.525 20.9154C46.8994 20.9154 40.6943 17.7247 40.6943 4.91211" stroke="#ED6F5D" stroke-miterlimit="10"/>
<path d="M54.5252 18.2482C56.6171 18.2482 58.313 16.5518 58.313 14.4592C58.313 12.3667 56.6171 10.6703 54.5252 10.6703C52.4332 10.6703 50.7373 12.3667 50.7373 14.4592C50.7373 16.5518 52.4332 18.2482 54.5252 18.2482Z" stroke="#ED6F5D" stroke-miterlimit="10"/>
<path d="M54.5254 18.2732V39.1373" stroke="#ED6F5D" stroke-miterlimit="10"/>
<path d="M48.2705 60.4999V45.3441C48.2705 41.954 51.0117 39.212 54.4008 39.212H54.65C58.0392 39.212 60.7804 41.954 60.7804 45.3441V60.4999" stroke="#ED6F5D" stroke-miterlimit="10"/>
<path d="M96.0167 4.91211C96.0167 17.7247 89.8116 20.9154 82.1861 20.9154C74.5606 20.9154 68.3555 17.7247 68.3555 4.91211" stroke="#ED6F5D" stroke-miterlimit="10"/>
<path d="M82.1863 18.2482C84.2783 18.2482 85.9741 16.5518 85.9741 14.4592C85.9741 12.3667 84.2783 10.6703 82.1863 10.6703C80.0943 10.6703 78.3984 12.3667 78.3984 14.4592C78.3984 16.5518 80.0943 18.2482 82.1863 18.2482Z" stroke="#ED6F5D" stroke-miterlimit="10"/>
<path d="M82.1865 18.2732V39.1373" stroke="#ED6F5D" stroke-miterlimit="10"/>
<path d="M75.9561 60.4999V45.3441C75.9561 41.954 78.6973 39.212 82.0864 39.212H82.3356C85.7247 39.212 88.4659 41.954 88.4659 45.3441V60.4999" stroke="#ED6F5D" stroke-miterlimit="10"/>
<path d="M68.281 8.90053C70.0014 8.90053 71.396 7.50549 71.396 5.78461C71.396 4.06374 70.0014 2.6687 68.281 2.6687C66.5607 2.6687 65.166 4.06374 65.166 5.78461C65.166 7.50549 66.5607 8.90053 68.281 8.90053Z" fill="#ED6F5D"/>
<path d="M35.0377 7.67908C35.0377 20.4917 28.8326 23.6824 21.207 23.6824" stroke="#ED6F5D" stroke-miterlimit="10"/>
<path d="M6.80371 39.8603C6.80371 27.0476 13.0088 23.8569 20.6343 23.8569" stroke="#ED6F5D" stroke-miterlimit="10"/>
<path d="M21.1824 21.0152C23.2744 21.0152 24.9702 19.3188 24.9702 17.2262C24.9702 15.1336 23.2744 13.4373 21.1824 13.4373C19.0904 13.4373 17.3945 15.1336 17.3945 17.2262C17.3945 19.3188 19.0904 21.0152 21.1824 21.0152Z" stroke="#ED6F5D" stroke-miterlimit="10"/>
<path d="M21.1816 21.04V38.6636" stroke="#ED6F5D" stroke-miterlimit="10"/>
<path d="M21.1076 38.4393L21.282 38.6138C23.6744 41.0068 23.6744 44.8706 21.282 47.2636L10.5664 57.9823" stroke="#ED6F5D" stroke-miterlimit="10"/>
<path d="M21.2817 38.215V38.4642C21.2817 41.8544 18.5405 44.5964 15.1514 44.5964H0" stroke="#ED6F5D" stroke-miterlimit="10"/>
<path d="M40.6697 6.73182C42.3901 6.73182 43.7847 5.33678 43.7847 3.61591C43.7847 1.89504 42.3901 0.5 40.6697 0.5C38.9493 0.5 37.5547 1.89504 37.5547 3.61591C37.5547 5.33678 38.9493 6.73182 40.6697 6.73182Z" fill="#ED6F5D"/>
<path d="M96.0173 8.02809C97.7377 8.02809 99.1324 6.63305 99.1324 4.91218C99.1324 3.19131 97.7377 1.79626 96.0173 1.79626C94.297 1.79626 92.9023 3.19131 92.9023 4.91218C92.9023 6.63305 94.297 8.02809 96.0173 8.02809Z" fill="#ED6F5D"/>
</g>
<defs>
<clipPath id="clip0_349_20248">
<rect width="99.0909" height="60" fill="white" transform="translate(0 0.5)"/>
</clipPath>
</defs>
</svg>
