<svg width="36" height="61" viewBox="0 0 36 61" fill="none" xmlns="http://www.w3.org/2000/svg">
<path d="M6.65472 57.0822H1.71467C1.55932 57.0822 1.46611 56.9269 1.52825 56.8026L12.5579 29.5525C12.589 29.4904 12.6511 29.4282 12.7443 29.4282H17.9951C18.1504 29.4282 18.2436 29.5836 18.1815 29.7079L6.84114 56.9579C6.81007 57.0511 6.74793 57.0822 6.65472 57.0822Z" fill="white" stroke="#ED6F5D" stroke-miterlimit="10"/>
<path d="M31.0132 52.7322L27.1605 54.9383C27.0673 55.0004 26.943 54.9693 26.8809 54.8761L13.1171 29.7389C13.055 29.6147 13.1482 29.4282 13.3035 29.4282H18.2436C18.3057 29.4282 18.3989 29.4593 18.43 29.5214L31.1064 52.4214C31.1374 52.5457 31.1064 52.67 31.0132 52.7322Z" fill="white" stroke="#ED6F5D" stroke-miterlimit="10"/>
<path d="M15.4781 9.88391C12.278 9.88391 9.69922 12.494 9.69922 15.6633V33.5918C9.69922 33.7161 9.79242 33.7782 9.88563 33.7782H21.0707C21.1949 33.7782 21.2571 33.685 21.2571 33.5918V15.6633C21.2881 12.494 18.6783 9.88391 15.4781 9.88391Z" fill="white" stroke="#ED6F5D" stroke-miterlimit="10"/>
<path d="M17.6534 9.88372C20.2444 9.88372 22.3449 7.7831 22.3449 5.19186C22.3449 2.60062 20.2444 0.5 17.6534 0.5C15.0624 0.5 12.9619 2.60062 12.9619 5.19186C12.9619 7.7831 15.0624 9.88372 17.6534 9.88372Z" fill="white" stroke="#ED6F5D" stroke-miterlimit="10"/>
<path d="M8.61203 60.5001H1.77674C1.34176 60.5001 1 60.1583 1 59.7233V58.325C1 57.6414 1.55925 57.0822 2.24278 57.0822H5.31866C6.68572 57.0822 7.95957 57.7036 8.82952 58.76L9.20235 59.2261C9.63732 59.7543 9.26449 60.5001 8.61203 60.5001Z" fill="white" stroke="#ED6F5D" stroke-miterlimit="10"/>
<path d="M34.8347 54.13L28.9626 57.61C28.5898 57.8275 28.0926 57.7032 27.8752 57.3304L27.1606 56.1186C26.8188 55.5282 27.0052 54.7825 27.5955 54.4096L30.2364 52.856C31.4171 52.1724 32.8152 52.0482 34.1201 52.5142L34.6794 52.7317C35.3318 52.9492 35.394 53.7882 34.8347 54.13Z" fill="white" stroke="#ED6F5D" stroke-miterlimit="10"/>
<path d="M31.1374 20.6038H2.67773V39.6819H31.1374V20.6038Z" fill="white" stroke="#ED6F5D" stroke-miterlimit="10"/>
<path d="M21.1951 23.3999H5.19434V37.8794H21.1951V23.3999Z" fill="white" stroke="#ED6F5D" stroke-miterlimit="10"/>
<path d="M5.19434 33.0632H21.1951" stroke="#ED6F5D" stroke-miterlimit="10"/>
<path d="M5.19434 28.2161H21.1951" stroke="#ED6F5D" stroke-miterlimit="10"/>
<path d="M17.1875 23.3999V37.8794" stroke="#ED6F5D" stroke-miterlimit="10"/>
<path d="M13.21 23.3999V37.8794" stroke="#ED6F5D" stroke-miterlimit="10"/>
<path d="M9.20215 23.3999V37.8794" stroke="#ED6F5D" stroke-miterlimit="10"/>
<path d="M20.0452 28.4957L23.3385 31.7893C23.556 32.0068 23.556 32.3486 23.3385 32.5661L22.655 33.2497C22.0647 33.8401 21.1015 33.8401 20.5423 33.2497L17.9014 30.6086" fill="white"/>
<path d="M20.0452 28.4957L23.3385 31.7893C23.556 32.0068 23.556 32.3486 23.3385 32.5661L22.655 33.2497C22.0647 33.8401 21.1015 33.8401 20.5423 33.2497L17.9014 30.6086" stroke="#ED6F5D" stroke-miterlimit="10"/>
<path d="M15.261 13.7366C15.261 21.1006 18.4301 25.2021 21.1331 27.4082C21.2264 27.4704 21.2264 27.5946 21.1642 27.6879L18.5233 31.0436C18.4612 31.1368 18.3369 31.1368 18.2437 31.0747C14.7018 28.2472 10.6006 22.9649 10.6006 13.7366" fill="white"/>
<path d="M15.261 13.7366C15.261 21.1006 18.4301 25.2021 21.1331 27.4082C21.2264 27.4704 21.2264 27.5946 21.1642 27.6879L18.5233 31.0436C18.4612 31.1368 18.3369 31.1368 18.2437 31.0747C14.7018 28.2472 10.6006 22.9649 10.6006 13.7366" stroke="#ED6F5D" stroke-miterlimit="10"/>
<path d="M28.7761 23.5552H23.5254V37.8793H28.7761V23.5552Z" fill="white" stroke="#ED6F5D" stroke-miterlimit="10"/>
<path d="M8.42578 4.63281H27.0675" stroke="#ED6F5D" stroke-miterlimit="10"/>
</svg>
