<svg width="80" height="61" viewBox="0 0 80 61" fill="none" xmlns="http://www.w3.org/2000/svg">
<g clip-path="url(#clip0_349_20200)">
<path d="M52.7254 4.87512L58.7477 14.5005C56.7231 15.7702 54.0636 15.1525 52.8111 13.1279L51.3699 10.8116C50.1002 8.8042 50.7179 6.14478 52.7254 4.87512Z" fill="white" stroke="#ED6F5D" stroke-miterlimit="10"/>
<path d="M2.64258 31.8984H46.7375C55.179 31.8984 62.0077 25.0697 62.0077 16.6281C62.0077 8.18662 55.179 1.35791 46.7375 1.35791C38.296 1.35791 31.4673 8.18662 31.4673 16.6281V41.6782V41.8498C31.4673 50.2913 38.296 57.12 46.7375 57.12H79.5085" stroke="#ED6F5D" stroke-miterlimit="10"/>
<path d="M54.3037 23.6627C55.6763 22.4446 56.7744 20.9347 57.4092 19.2018" stroke="#ED6F5D" stroke-miterlimit="10"/>
<path d="M49.6885 26.408C50.615 26.0648 51.5072 25.6187 52.3479 25.104" stroke="#ED6F5D" stroke-miterlimit="10"/>
<path d="M40.9209 27.609C42.7224 27.5747 44.524 27.4889 46.3084 27.2144" stroke="#ED6F5D" stroke-miterlimit="10"/>
<path d="M35.1729 27.6433C36.391 27.6261 37.6092 27.6261 38.8103 27.6261" stroke="#ED6F5D" stroke-miterlimit="10"/>
<path d="M26.7656 27.5575C27.5206 27.5575 28.2755 27.5747 29.0304 27.5747" stroke="#ED6F5D" stroke-miterlimit="10"/>
<path d="M22.1162 27.5403C22.9055 27.5403 23.7119 27.5403 24.5011 27.5403" stroke="#ED6F5D" stroke-miterlimit="10"/>
<path d="M15.9053 27.506C17.1406 27.506 18.376 27.5231 19.6113 27.5231" stroke="#ED6F5D" stroke-miterlimit="10"/>
<path d="M9.95117 27.4717C11.2208 27.4717 12.4905 27.4888 13.7773 27.4888" stroke="#ED6F5D" stroke-miterlimit="10"/>
<path d="M6.46875 27.4717C6.82906 27.4717 7.18937 27.4717 7.54968 27.4717" stroke="#ED6F5D" stroke-miterlimit="10"/>
<path d="M3.24316 27.4889C3.56916 27.4889 3.87799 27.4889 4.20399 27.4889" stroke="#ED6F5D" stroke-miterlimit="10"/>
<path d="M0 27.5232C0.325994 27.5232 0.63483 27.5232 0.960824 27.5232" stroke="#ED6F5D" stroke-miterlimit="10"/>
<path d="M7.90918 31.8983V59.9852" stroke="#ED6F5D" stroke-miterlimit="10"/>
<path d="M21.6357 31.8983V59.9852" stroke="#ED6F5D" stroke-miterlimit="10"/>
<path d="M40.2686 31.8983V59.9852" stroke="#ED6F5D" stroke-miterlimit="10"/>
<path d="M47.1318 1.35791V59.6422" stroke="#ED6F5D" stroke-miterlimit="10"/>
<path d="M61.7842 20.4028V60.5001" stroke="#ED6F5D" stroke-miterlimit="10"/>
<path d="M59.5707 14.5177C60.1772 14.5177 60.6688 14.0261 60.6688 13.4196C60.6688 12.8132 60.1772 12.3215 59.5707 12.3215C58.9643 12.3215 58.4727 12.8132 58.4727 13.4196C58.4727 14.0261 58.9643 14.5177 59.5707 14.5177Z" stroke="#ED6F5D" stroke-miterlimit="10"/>
<path d="M56.3452 9.37048C56.9516 9.37048 57.4432 8.87886 57.4432 8.2724C57.4432 7.66594 56.9516 7.17432 56.3452 7.17432C55.7387 7.17432 55.2471 7.66594 55.2471 8.2724C55.2471 8.87886 55.7387 9.37048 56.3452 9.37048Z" stroke="#ED6F5D" stroke-miterlimit="10"/>
<path d="M54.4409 6.33362C55.0473 6.33362 55.5389 5.84199 55.5389 5.23554C55.5389 4.62908 55.0473 4.13745 54.4409 4.13745C53.8344 4.13745 53.3428 4.62908 53.3428 5.23554C53.3428 5.84199 53.8344 6.33362 54.4409 6.33362Z" stroke="#ED6F5D" stroke-miterlimit="10"/>
<path d="M53.4111 14.1059L55.6759 17.7261L59.4506 15.6158L54.7838 8.15222C52.7592 9.42188 52.1415 12.0813 53.4111 14.1059Z" fill="white" stroke="#ED6F5D" stroke-miterlimit="10"/>
</g>
<defs>
<clipPath id="clip0_349_20200">
<rect width="79.5081" height="60" fill="white" transform="translate(0 0.5)"/>
</clipPath>
</defs>
</svg>
