<svg width="54" height="61" viewBox="0 0 54 61" fill="none" xmlns="http://www.w3.org/2000/svg">
<g clip-path="url(#clip0_349_20223)">
<path d="M20.7198 32.2204C20.7198 26.1452 16.0162 21.2527 10.2374 21.3871C4.80797 21.5215 0.373065 26.2258 0.265552 31.9785C0.211796 35.0161 1.3138 37.785 3.1684 39.7742C4.59294 41.3333 5.37241 43.4301 5.37241 45.6344V50.3656H15.3711V45.8495C15.3711 43.5914 16.2581 41.4409 17.7632 39.828C19.591 37.8656 20.7198 35.1774 20.7198 32.2204Z" stroke="#ED6F5D" stroke-miterlimit="10"/>
<path d="M15.1293 52.7581H5.39944C4.75436 52.7581 4.2168 52.2204 4.2168 51.5753C4.2168 50.9301 4.75436 50.3925 5.39944 50.3925H15.1293C15.7744 50.3925 16.312 50.9301 16.312 51.5753C16.312 52.2204 15.7744 52.7581 15.1293 52.7581Z" stroke="#ED6F5D" stroke-miterlimit="10"/>
<path d="M14.6995 52.7581H5.74902V54.1828H14.6995V52.7581Z" stroke="#ED6F5D" stroke-miterlimit="10"/>
<path d="M15.3168 56.5484H5.58694C4.94186 56.5484 4.4043 56.0108 4.4043 55.3657C4.4043 54.7205 4.94186 54.1829 5.58694 54.1829H15.3168C15.9619 54.1829 16.4995 54.7205 16.4995 55.3657C16.4995 56.0108 15.9619 56.5484 15.3168 56.5484Z" stroke="#ED6F5D" stroke-miterlimit="10"/>
<path d="M14.887 56.5483H5.93652V57.9731H14.887V56.5483Z" stroke="#ED6F5D" stroke-miterlimit="10"/>
<path d="M15.3706 60.3656H5.64065C4.99557 60.3656 4.45801 59.828 4.45801 59.1828C4.45801 58.5376 4.99557 58 5.64065 58H15.3706C16.0156 58 16.5532 58.5376 16.5532 59.1828C16.5532 59.828 16.0156 60.3656 15.3706 60.3656Z" stroke="#ED6F5D" stroke-miterlimit="10"/>
<path d="M10.3984 0.5V21.3871" stroke="#ED6F5D" stroke-miterlimit="10"/>
<path d="M53.5922 3.18817H40.0456C40.0456 4.66667 38.8361 5.87634 37.3578 5.87634H29.2943V5.71505C29.2943 4.20968 28.0848 3 26.5796 3H10.3721V11.9516H24.4294C26.0152 11.9516 27.3053 13.2419 27.3053 14.828H43.5397C45.018 14.828 46.2276 13.6183 46.2276 12.1398H53.5922L48.2166 7.91935L53.5922 3.18817Z" stroke="#ED6F5D" stroke-miterlimit="10"/>
<path d="M29.2937 5.87634L27.3047 14.828" stroke="#ED6F5D" stroke-miterlimit="10"/>
<path d="M40.0449 3.18823L46.2269 12.1398" stroke="#ED6F5D" stroke-miterlimit="10"/>
</g>
<defs>
<clipPath id="clip0_349_20223">
<rect width="54" height="60" fill="white" transform="translate(0 0.5)"/>
</clipPath>
</defs>
</svg>
