<svg width="50" height="61" viewBox="0 0 50 61" fill="none" xmlns="http://www.w3.org/2000/svg">
<path d="M18.9996 39.3608L2.11164 22.4493C0.629453 20.9651 0.629453 18.4913 2.11164 16.9621C3.59383 15.4778 6.06414 15.4778 7.59124 16.9621L24.4792 33.8736" fill="white"/>
<path d="M18.9996 39.3608L2.11164 22.4493C0.629453 20.9651 0.629453 18.4913 2.11164 16.9621C3.59383 15.4778 6.06414 15.4778 7.59124 16.9621L24.4792 33.8736" stroke="#ED6F5D" stroke-miterlimit="10"/>
<path d="M25.5119 29.1057V5.17775C25.5119 3.06381 23.7603 1.30969 21.6493 1.30969C19.5383 1.30969 17.7866 3.06381 17.7866 5.17775V41.4745C17.7866 41.4745 16.4392 53.6634 30.3178 54.0232C37.2796 54.2031 38.5821 60.5 38.5821 60.5" fill="white"/>
<path d="M25.5119 29.1057V5.17775C25.5119 3.06381 23.7603 1.30969 21.6493 1.30969C19.5383 1.30969 17.7866 3.06381 17.7866 5.17775V41.4745C17.7866 41.4745 16.4392 53.6634 30.3178 54.0232C37.2796 54.2031 38.5821 60.5 38.5821 60.5" stroke="#ED6F5D" stroke-miterlimit="10"/>
<path d="M29.3744 46.9167C27.2634 46.9167 25.5117 45.1626 25.5117 43.0486V19.1206C25.5117 17.0067 27.2634 15.2526 29.3744 15.2526C31.4854 15.2526 33.2371 17.0067 33.2371 19.1206V43.0486C33.282 45.2075 31.5303 46.9167 29.3744 46.9167Z" stroke="#ED6F5D" stroke-miterlimit="10"/>
<path d="M37.3246 47.3668C35.2136 47.3668 33.4619 45.6127 33.4619 43.4987V19.5258C33.4619 17.4118 35.2136 15.6577 37.3246 15.6577C39.4356 15.6577 41.1872 17.4118 41.1872 19.5258V43.4538C41.1872 45.6127 39.4356 47.3668 37.3246 47.3668Z" stroke="#ED6F5D" stroke-miterlimit="10"/>
<path d="M41.1875 28.296V4.36806C41.1875 2.25412 42.9392 0.5 45.0502 0.5C47.1612 0.5 48.9128 2.25412 48.9128 4.36806V60.185" stroke="#ED6F5D" stroke-miterlimit="10"/>
<path d="M17.7871 10.2601H23.4464" stroke="#ED6F5D" stroke-miterlimit="10"/>
<path d="M41.3672 8.82117H46.9815" stroke="#ED6F5D" stroke-miterlimit="10"/>
<path d="M4.85105 25.1476C4.85105 21.1896 3.41378 17.9962 1.66211 17.9962" stroke="#ED6F5D" stroke-miterlimit="10"/>
</svg>
