<svg width="50" height="50" viewBox="0 0 50 50" fill="none" xmlns="http://www.w3.org/2000/svg">
<mask id="path-1-inside-1_185_14613" fill="white">
<path fill-rule="evenodd" clip-rule="evenodd" d="M44.4626 8.5993C41.5519 6.11117 37.3297 6.57753 35.0322 9.64094L19.7685 29.9927L13.985 22.2814C11.6875 19.2179 7.46532 18.7516 4.55458 21.2397C1.64384 23.7278 1.14675 28.2283 3.4443 31.2917L10.9633 41.3171C13.1011 44.1674 16.9049 44.7694 19.7683 42.8353C22.6318 44.7696 26.4358 44.1676 28.5735 41.3172L45.5729 18.6513C47.8705 15.5878 47.3734 11.0874 44.4626 8.5993Z"/>
</mask>
<path d="M35.0322 9.64094L32.6322 7.84095L32.6322 7.84095L35.0322 9.64094ZM44.4626 8.5993L46.4119 6.3189V6.3189L44.4626 8.5993ZM19.7685 29.9927L17.3685 31.7927L19.7685 34.9927L22.1685 31.7927L19.7685 29.9927ZM13.985 22.2814L16.385 20.4814L13.985 22.2814ZM4.55458 21.2397L6.50389 23.5201H6.50389L4.55458 21.2397ZM3.4443 31.2917L1.04429 33.0917H1.04429L3.4443 31.2917ZM10.9633 41.3171L8.56334 43.1171H8.56334L10.9633 41.3171ZM19.7683 42.8353L21.4476 40.3493L19.7684 39.215L18.0891 40.3493L19.7683 42.8353ZM28.5735 41.3172L30.9735 43.1172L28.5735 41.3172ZM45.5729 18.6513L47.9729 20.4513L45.5729 18.6513ZM37.4322 11.4409C38.6905 9.76319 40.9192 9.51702 42.5133 10.8797L46.4119 6.3189C42.1846 2.70531 35.969 3.39187 32.6322 7.84095L37.4322 11.4409ZM22.1685 31.7927L37.4322 11.4409L32.6322 7.84095L17.3685 28.1927L22.1685 31.7927ZM22.1685 28.1927L16.385 20.4814L11.585 24.0813L17.3685 31.7927L22.1685 28.1927ZM16.385 20.4814C13.0482 16.0323 6.83263 15.3457 2.60527 18.9593L6.50389 23.5201C8.09801 22.1574 10.3267 22.4036 11.585 24.0813L16.385 20.4814ZM2.60527 18.9593C-1.50846 22.4758 -2.20282 28.7622 1.04429 33.0917L5.8443 29.4917C4.49632 27.6944 4.79614 24.9799 6.50389 23.5201L2.60527 18.9593ZM1.04429 33.0917L8.56334 43.1171L13.3634 39.5171L5.8443 29.4917L1.04429 33.0917ZM8.56334 43.1171C11.6607 47.2469 17.259 48.1505 21.4476 45.3213L18.0891 40.3493C16.5508 41.3883 14.5414 41.0879 13.3634 39.5171L8.56334 43.1171ZM26.1735 39.5172C24.9954 41.0881 22.986 41.3885 21.4476 40.3493L18.0891 45.3212C22.2777 48.1507 27.8761 47.2471 30.9735 43.1172L26.1735 39.5172ZM43.1729 16.8513L26.1735 39.5172L30.9735 43.1172L47.9729 20.4513L43.1729 16.8513ZM42.5133 10.8797C44.2211 12.3395 44.5209 15.0539 43.1729 16.8513L47.9729 20.4513C51.22 16.1217 50.5257 9.83537 46.4119 6.3189L42.5133 10.8797Z" fill="#ED6F5D" mask="url(#path-1-inside-1_185_14613)"/>
</svg>
