<svg width="50" height="50" viewBox="0 0 50 50" fill="none" xmlns="http://www.w3.org/2000/svg">
<path d="M19.8822 9.30576C22.5491 5.96411 27.6287 5.96411 30.2955 9.30576C31.8144 11.209 33.9959 12.4684 36.4036 12.8322C40.631 13.471 43.1708 17.8701 41.6103 21.8505C40.7215 24.1175 40.7215 26.6364 41.6103 28.9034C43.1708 32.8838 40.631 37.2829 36.4036 37.9217C33.9959 38.2855 31.8144 39.5449 30.2955 41.4481C27.6287 44.7898 22.5491 44.7898 19.8822 41.4481C18.3633 39.545 16.1818 38.2855 13.7741 37.9217C9.54676 37.2829 7.00695 32.8838 8.56747 28.9034C9.45624 26.6364 9.45624 24.1175 8.56747 21.8505C7.00695 17.8701 9.54676 13.471 13.7741 12.8322C16.1818 12.4684 18.3633 11.209 19.8822 9.30576Z" stroke="#ED6F5D" stroke-width="3"/>
</svg>
