<svg width="50" height="50" viewBox="0 0 50 50" fill="none" xmlns="http://www.w3.org/2000/svg">
<mask id="path-1-inside-1_185_14619" fill="white">
<path fill-rule="evenodd" clip-rule="evenodd" d="M24.9682 2C29.2024 2 32.6394 5.43249 32.6449 9.66667L32.6549 17.3406L40.3333 17.3506C44.5675 17.3561 48 20.7931 48 25.0273C48 29.2615 44.5675 32.6895 40.3333 32.6839L32.6749 32.6739L32.6848 40.3333C32.6904 44.5675 29.2623 48 25.0282 48C20.794 48 17.357 44.5675 17.3515 40.3333L17.3415 32.6539L9.66667 32.6439C5.43248 32.6383 2 29.2014 2 24.9672C2 20.733 5.43249 17.305 9.66667 17.3105L17.3215 17.3205L17.3116 9.66667C17.306 5.43248 20.7341 2 24.9682 2Z"/>
</mask>
<path d="M32.6449 9.66667L29.6449 9.67058V9.67058L32.6449 9.66667ZM32.6549 17.3406L29.6549 17.3445L29.6588 20.3366L32.651 20.3406L32.6549 17.3406ZM40.3333 17.3506L40.3294 20.3506L40.3333 17.3506ZM40.3333 32.6839L40.3294 35.6839L40.3333 32.6839ZM32.6749 32.6739L32.6788 29.6739L29.671 29.67L29.6749 32.6778L32.6749 32.6739ZM32.6848 40.3333L35.6848 40.3294L32.6848 40.3333ZM17.3515 40.3333L20.3515 40.3294L17.3515 40.3333ZM17.3415 32.6539L20.3415 32.65L20.3376 29.6578L17.3454 29.6539L17.3415 32.6539ZM9.66667 32.6439L9.66274 35.6439H9.66275L9.66667 32.6439ZM9.66667 17.3105L9.67059 14.3105H9.67059L9.66667 17.3105ZM17.3215 17.3205L17.3176 20.3205L20.3254 20.3244L20.3215 17.3166L17.3215 17.3205ZM17.3116 9.66667L20.3116 9.66276V9.66276L17.3116 9.66667ZM35.6449 9.66277C35.6372 3.77326 30.8578 -1 24.9682 -1V5C27.5471 5 29.6416 7.09172 29.6449 9.67058L35.6449 9.66277ZM35.6549 17.3366L35.6449 9.66277L29.6449 9.67058L29.6549 17.3445L35.6549 17.3366ZM40.3373 14.3506L32.6588 14.3406L32.651 20.3406L40.3294 20.3506L40.3373 14.3506ZM51 25.0273C51 19.1378 46.2268 14.3583 40.3373 14.3506L40.3294 20.3506C42.9083 20.354 45 22.4484 45 25.0273H51ZM40.3294 35.6839C46.222 35.6916 51 30.9199 51 25.0273H45C45 27.6031 42.9131 29.6873 40.3373 29.6839L40.3294 35.6839ZM32.6709 35.6739L40.3294 35.6839L40.3373 29.6839L32.6788 29.6739L32.6709 35.6739ZM35.6848 40.3294L35.6749 32.67L29.6749 32.6778L29.6848 40.3372L35.6848 40.3294ZM25.0282 51C30.9207 51 35.6925 46.222 35.6848 40.3294L29.6848 40.3372C29.6882 42.9131 27.604 45 25.0282 45V51ZM14.3515 40.3372C14.3592 46.2267 19.1386 51 25.0282 51V45C22.4493 45 20.3549 42.9083 20.3515 40.3294L14.3515 40.3372ZM14.3415 32.6578L14.3515 40.3372L20.3515 40.3294L20.3415 32.65L14.3415 32.6578ZM9.66275 35.6439L17.3376 35.6539L17.3454 29.6539L9.67059 29.6439L9.66275 35.6439ZM-1 24.9672C-1 30.8567 3.77324 35.6362 9.66274 35.6439L9.67059 29.6439C7.09173 29.6405 5 27.546 5 24.9672H-1ZM9.67059 14.3105C3.77803 14.3028 -1 19.0746 -1 24.9672H5C5 22.3914 7.08695 20.3072 9.66276 20.3105L9.67059 14.3105ZM17.3254 14.3205L9.67059 14.3105L9.66275 20.3105L17.3176 20.3205L17.3254 14.3205ZM14.3116 9.67057L14.3215 17.3244L20.3215 17.3166L20.3116 9.66276L14.3116 9.67057ZM24.9682 -1C19.0757 -1 14.3039 3.77801 14.3116 9.67057L20.3116 9.66276C20.3082 7.08696 22.3924 5 24.9682 5V-1Z" fill="#ED6F5D" mask="url(#path-1-inside-1_185_14619)"/>
</svg>
