<svg width="25" height="25" viewBox="0 0 25 25" fill="none" xmlns="http://www.w3.org/2000/svg">
<path d="M12.5 0C5.59476 0 0 5.59476 0 12.5C0 19.4052 5.59476 25 12.5 25C19.4052 25 25 19.4052 25 12.5C25 5.59476 19.4052 0 12.5 0ZM18.6391 8.56351L16.5877 18.2308C16.4365 18.9163 16.0282 19.0827 15.4587 18.7601L12.3337 16.4567L10.8266 17.9083C10.6603 18.0746 10.5192 18.2157 10.1966 18.2157L10.4183 15.0353L16.2097 9.80343C16.4617 9.58165 16.1542 9.45565 15.8216 9.67742L8.66431 14.1835L5.57964 13.2208C4.90927 13.0091 4.89415 12.5504 5.72077 12.2278L17.7722 7.58065C18.3317 7.37903 18.8206 7.71673 18.6391 8.56351Z" fill="#969696"/>
</svg>
