<svg width="20" height="14" viewBox="0 0 20 14" fill="none" xmlns="http://www.w3.org/2000/svg">
<path d="M10 2.41667C11.5323 2.41157 13.0349 2.83899 14.3351 3.64977C15.6353 4.46056 16.6803 5.6218 17.35 7C15.975 9.80833 13.1667 11.5833 10 11.5833C6.83333 11.5833 4.025 9.80833 2.65 7C3.31968 5.6218 4.36469 4.46056 5.66489 3.64977C6.9651 2.83899 8.46772 2.41157 10 2.41667ZM10 0.75C5.83333 0.75 2.27499 3.34167 0.833328 7C2.27499 10.6583 5.83333 13.25 10 13.25C14.1667 13.25 17.725 10.6583 19.1667 7C17.725 3.34167 14.1667 0.75 10 0.75ZM10 4.91667C10.5525 4.91667 11.0824 5.13616 11.4731 5.52686C11.8638 5.91756 12.0833 6.44747 12.0833 7C12.0833 7.55253 11.8638 8.08244 11.4731 8.47314C11.0824 8.86384 10.5525 9.08333 10 9.08333C9.44746 9.08333 8.91756 8.86384 8.52686 8.47314C8.13616 8.08244 7.91666 7.55253 7.91666 7C7.91666 6.44747 8.13616 5.91756 8.52686 5.52686C8.91756 5.13616 9.44746 4.91667 10 4.91667ZM10 3.25C7.93333 3.25 6.25 4.93333 6.25 7C6.25 9.06667 7.93333 10.75 10 10.75C12.0667 10.75 13.75 9.06667 13.75 7C13.75 4.93333 12.0667 3.25 10 3.25Z" fill="#969696"/>
</svg>
