<svg width="263" height="228" viewBox="0 0 263 228" fill="none" xmlns="http://www.w3.org/2000/svg">
<g clip-path="url(#clip0_261_15458)">
<path d="M222.357 170.082C219.285 170.082 206.196 166.895 189.049 161.953C177.359 158.582 153.793 151.538 127.454 142.07C102.56 133.133 82.5475 124.704 67.9911 117.037C59.5553 112.58 53.0221 108.4 48.5521 104.589C43.5548 100.317 41.0332 96.3914 41.0332 92.9043H42.4086C42.4086 103.989 72.7821 120.986 127.913 140.777C172.063 156.619 216.787 168.696 222.357 168.696V170.082Z" fill="black"/>
<path d="M222.38 167.773V166.387C223.182 166.387 223.664 166.341 223.962 166.295C222.197 164.932 214.105 161.792 206.242 158.766C195.216 154.517 181.508 149.206 170.39 143.571C157.071 136.805 150.584 131.078 150.584 126.043H151.959C151.959 136.32 186.23 149.575 206.723 157.496C212.11 159.575 216.764 161.376 220.088 162.808C224.97 164.932 225.773 165.764 225.612 166.664C225.452 167.588 224.26 167.773 222.38 167.773Z" fill="black"/>
<path d="M157.048 136.181L165.874 117.499L115.58 137.035L157.048 136.181Z" fill="white"/>
<path d="M70.306 99.4397H0L11.4617 95.0058V69.7879C11.4617 65.4002 14.9919 61.8669 19.3244 61.8669H70.2831C74.6385 61.8669 78.1458 65.4233 78.1458 69.7879V91.5187C78.1687 95.9064 74.6385 99.4397 70.306 99.4397Z" fill="#ED6F5D"/>
<path d="M157.14 136.074C151.047 136.074 146.063 131.059 146.063 124.911V21.2227C146.063 15.0754 151.047 10.0605 157.14 10.0605C163.233 10.0605 168.216 15.0754 168.216 21.2227V124.888C168.216 131.037 163.232 136.074 157.14 136.074Z" fill="white" stroke="#969696"/>
<path d="M221.348 168.95H219.973C219.973 166.202 216.168 161.468 198.058 154.517C186.138 149.945 169.541 144.98 148.727 139.761C111.958 130.546 76.1744 124.011 74.9365 123.919L74.9594 122.533C76.1973 122.533 112.898 129.345 148.704 138.306C169.656 143.548 186.39 148.559 198.425 153.155C213.852 159.09 221.348 164.239 221.348 168.95Z" fill="black"/>
<path d="M90.0889 128.861H64.644C59.6008 128.861 55.4746 124.704 55.4746 119.623C55.4746 114.543 59.6008 110.386 64.644 110.386H90.0889C95.1321 110.386 99.2583 114.543 99.2583 119.623C99.2583 124.704 95.1321 128.861 90.0889 128.861Z" fill="#969696"/>
<path d="M61.2051 143.201V125.396H66.9359L61.2051 143.201Z" fill="#969696"/>
<path d="M223.045 169.389H221.669C221.669 159.136 209.176 144.425 184.556 125.697C163.902 109.947 139.466 94.9365 123.282 85.0064C107.007 75.007 106.067 74.2911 106.365 73.2288C106.411 73.0903 106.594 72.6284 107.282 72.6284V74.014C107.373 74.014 107.557 73.9216 107.648 73.7138C107.763 73.506 107.694 73.2981 107.671 73.2288C108.245 74.1295 115.557 78.6327 124.016 83.8287C140.223 93.7819 164.682 108.816 185.405 124.565C196.82 133.271 205.761 141.192 211.95 148.12C219.308 156.388 223.045 163.547 223.045 169.389Z" fill="black"/>
<path d="M122.204 67.4556H142.743L103.613 115.074L122.204 67.4556Z" fill="#969696"/>
<path d="M114.044 89.7174H111.179C94.5364 89.7174 80.9199 76 80.9199 59.2343V56.3476C80.9199 39.5819 94.5364 25.8645 111.179 25.8645H114.044C130.687 25.8645 144.303 39.5819 144.303 56.3476V59.2343C144.303 76 130.687 89.7174 114.044 89.7174Z" fill="#969696"/>
<path d="M220.638 167.773V166.387C220.775 166.387 221.027 166.364 221.073 166.249C221.119 166.133 221.325 165.44 219.996 162.877C219.033 161.053 217.497 158.628 215.274 155.464C211.033 149.46 204.844 141.493 197.669 132.255C170.436 97.2459 129.288 44.293 129.288 13.4172H130.663C130.663 43.808 171.628 96.53 198.746 131.424C205.921 140.661 212.133 148.652 216.374 154.679C222.54 163.408 222.861 165.694 222.311 166.849C222.128 167.265 221.669 167.773 220.638 167.773Z" fill="black"/>
<path d="M89.9014 18.9676V0.5H137.957V18.9676H89.9014Z" fill="#969696" stroke="#969696"/>
<path d="M91.4223 0.5V9.56547L76.7223 0.5H91.4223Z" fill="#969696" stroke="#969696"/>
<path d="M232.741 216.984C228.477 216.984 224.099 213.151 221.004 210.033L224.557 206.431C230.334 212.25 232.695 212.019 233.268 211.811C234.093 211.511 234.895 210.195 235.491 208.093C236.179 205.692 236.5 202.713 236.798 200.103C237.165 196.847 237.394 194.953 238.059 193.66L242.552 195.969C242.277 196.547 242.002 198.949 241.818 200.681C241.131 206.939 240.26 214.744 234.941 216.638C234.231 216.869 233.474 216.984 232.741 216.984Z" fill="black"/>
<path d="M247.572 225.067H242.529C242.529 216.754 240.076 197.933 239.045 195.046L243.79 193.314C245.211 197.24 247.572 217.123 247.572 225.067Z" fill="black"/>
<path d="M245.464 196.662H235.148C235.148 189.619 239.573 173.431 240.077 171.606L250.003 174.4C248.261 180.751 245.464 192.413 245.464 196.662Z" fill="black"/>
<path d="M226.07 190.196C225.314 190.196 224.603 190.035 223.938 189.734C219.376 187.679 219.927 180.035 220.935 173.615L225.91 174.4C224.557 183.107 225.818 184.885 226.001 185.093C226.345 185.116 229.623 184.977 239.572 172.715L243.469 175.925C235.537 185.716 230.127 190.196 226.07 190.196Z" fill="black"/>
<path d="M245.44 172.299C243.927 172.299 242.689 171.052 242.689 169.528V165.995C242.689 164.47 243.927 163.223 245.44 163.223C246.953 163.223 248.191 164.47 248.191 165.995V169.528C248.191 171.075 246.953 172.299 245.44 172.299Z" fill="black"/>
<path d="M247.526 165.232H243.469C242.392 165.232 241.521 164.355 241.521 163.27C241.521 162.184 242.392 161.307 243.469 161.307H247.526C248.604 161.307 249.475 162.184 249.475 163.27C249.475 164.355 248.604 165.232 247.526 165.232Z" fill="black"/>
<path d="M242.667 228V226.037H248.673C249.75 226.037 250.621 226.915 250.621 228" fill="black"/>
<path d="M222.311 204.445L223.686 205.83L219.445 210.103C218.689 210.865 217.451 210.865 216.694 210.103" fill="black"/>
<path d="M250.048 166.387H243.217V164.517H248.283L250.048 166.387Z" fill="black"/>
<path d="M259.034 202.32C254.06 202.32 248.925 202.32 246.701 197.101C245.051 193.291 245.051 187.009 245.051 174.493H250.094C250.094 185.555 250.094 192.229 251.309 195.069C252.02 196.732 253.12 197.217 259.034 197.217V202.32Z" fill="black"/>
<path d="M222.082 171.075C223.753 171.075 225.107 169.71 225.107 168.027C225.107 166.343 223.753 164.979 222.082 164.979C220.41 164.979 219.056 166.343 219.056 168.027C219.056 169.71 220.41 171.075 222.082 171.075Z" fill="black"/>
<path d="M225.039 175.694H222.747C222.747 173.269 222.747 171.468 222.586 170.844C222.449 170.844 222.265 170.844 222.082 170.844V168.535C222.999 168.535 224.283 168.535 224.741 170.105C225.039 171.029 225.039 172.484 225.039 175.694Z" fill="black"/>
<path d="M241.91 175.393V172.622C242.506 172.622 243.194 172.622 243.446 172.553C243.675 172.045 243.675 170.013 243.675 167.703H246.426C246.426 171.167 246.426 172.761 245.899 173.846C245.119 175.393 243.629 175.393 241.91 175.393Z" fill="black"/>
<path d="M262.083 202.782C261.578 202.782 261.166 202.366 261.166 201.858C261.166 200.796 261.166 199.965 260.937 199.826C260.478 199.549 258.988 199.549 256.719 199.549C256.214 199.549 255.802 199.133 255.802 198.625C255.802 198.117 256.214 197.702 256.719 197.702C259.653 197.702 260.982 197.702 261.876 198.233C263 198.903 263 200.08 263 201.858C263 202.366 262.587 202.782 262.083 202.782Z" fill="black"/>
</g>
<defs>
<clipPath id="clip0_261_15458">
<rect width="263" height="228" fill="white"/>
</clipPath>
</defs>
</svg>
