<svg width="233" height="38" viewBox="0 0 233 38" fill="none" xmlns="http://www.w3.org/2000/svg">
<path d="M46.0259 1.84375V30.4546H51.0158V5.71342H59.9233V30.4546H64.9131V1.84375H46.0259Z" fill="black"/>
<path d="M73.5574 9.74775H69.0212V36.4238H73.9286V28.0258C75.1657 29.8783 76.9802 30.8663 79.0834 30.8663C83.867 30.8663 87.1661 27.0378 87.1661 20.0806C87.1661 13.1646 83.9495 9.33608 79.3308 9.33608C77.0214 9.33608 75.1245 10.4064 73.8048 12.4236L73.5574 9.74775ZM77.8462 26.9966C75.2482 26.9966 73.9286 24.8971 73.9286 20.1217C73.9286 15.3052 75.3307 13.2058 78.0936 13.2058C80.7741 13.2058 82.0938 15.3053 82.0938 20.0806C82.0938 24.8971 80.6917 26.9966 77.8462 26.9966Z" fill="black"/>
<path d="M105.75 16.3344C105.75 11.3121 103.193 9.41842 97.9973 9.41842C94.7395 9.41842 92.1827 10.4476 90.6981 11.3121V15.3876C92.0177 14.3996 94.9044 13.3293 97.42 13.3293C99.7706 13.3293 100.843 14.1526 100.843 16.3756V17.5283H100.059C92.5538 17.5283 89.2135 19.9983 89.2135 24.1973C89.2135 28.3963 91.7703 30.7428 95.5642 30.7428C98.4509 30.7428 99.6881 29.7959 100.637 28.8079H100.843C100.884 29.3431 101.049 30.0429 101.214 30.4546H105.998C105.833 28.7668 105.75 27.0789 105.75 25.3911V16.3344ZM100.843 25.5146C100.224 26.4203 99.0695 27.1613 97.3375 27.1613C95.2756 27.1613 94.2446 26.0086 94.2446 24.2384C94.2446 21.8919 95.9354 21.0274 100.142 21.0274H100.843V25.5146Z" fill="black"/>
<path d="M121.861 30.4546H127.428L119.552 19.4631L126.48 9.74775H121.531L114.603 19.4631V9.74775H109.696V30.4546H114.603V20.4511L121.861 30.4546Z" fill="black"/>
<path d="M143.881 13.6174V9.74775H127.427V13.6174H133.2V30.4546H138.107V13.6174H143.881Z" fill="black"/>
<path d="M146.786 9.74775V30.4546H151.158L158.663 17.6518V30.4546H163.405V9.74775H159.034L151.529 22.5506V9.74775H146.786Z" fill="black"/>
<path d="M179.692 30.4546H185.259L177.382 19.4631L184.31 9.74775H179.362L172.434 19.4631V9.74775H167.526V30.4546H172.434V20.4511L179.692 30.4546Z" fill="black"/>
<path d="M189.577 36.8354C194.154 36.8354 195.845 33.5833 197.247 29.3431L203.721 9.74775H198.979L194.401 25.3088L189.824 9.74775H184.669L191.803 31.3603C191.267 32.3483 190.484 32.9658 189.123 32.9658C188.216 32.9658 187.432 32.6776 186.896 32.1424V36.1356C186.896 36.1356 187.638 36.8354 189.577 36.8354Z" fill="black"/>
<path d="M223.275 30.4546H228.058L227.976 9.74775H221.254L216.759 23.5386L212.717 9.74775H205.583V30.4546H209.748V14.9759L214.243 30.4546H218.243L223.275 14.9759V30.4546Z" fill="black"/>
<path fill-rule="evenodd" clip-rule="evenodd" d="M19.0331 38C29.5448 38 38.0662 29.4934 38.0662 19C38.0662 8.50659 29.5448 0 19.0331 0C8.52142 0 0 8.50659 0 19C0 29.4934 8.52142 38 19.0331 38ZM19.7251 11.0412H21.425V29.8893H25.2295V8.0917H19.7048C14.1397 8.0917 11.2053 10.9603 11.2053 15.1623C11.2053 18.5158 12.8041 20.4955 15.6575 22.5359L10.6994 29.9095H14.8277L20.3524 21.6672L18.4299 20.3743C16.1027 18.7986 14.9694 17.5663 14.9694 14.9401C14.9694 12.6169 16.6086 11.0412 19.7251 11.0412Z" fill="black"/>
</svg>
